<svg width="50" height="51" viewBox="0 0 50 51" fill="none" xmlns="http://www.w3.org/2000/svg">
<g clip-path="url(#clip0_175_247)">
<path d="M25 50.9092C38.8071 50.9092 50 39.7163 50 25.9092C50 12.1021 38.8071 0.90918 25 0.90918C11.1929 0.90918 0 12.1021 0 25.9092C0 39.7163 11.1929 50.9092 25 50.9092Z" fill="#F0F0F0"/>
<path d="M33.1198 19.3878H29.8489C29.876 19.7473 29.8913 20.11 29.8913 20.4747C29.8913 22.8931 29.2868 25.2371 28.233 26.9057C27.9079 27.4203 27.3616 28.1471 26.6304 28.6373V19.3877H23.3695V28.6373C22.6384 28.1471 22.092 27.4204 21.7669 26.9057C20.713 25.2371 20.1086 22.8931 20.1086 20.4747C20.1086 20.11 20.124 19.7472 20.151 19.3878H16.8801C16.8591 19.7455 16.8477 20.1078 16.8477 20.4747C16.8477 27.1794 20.4285 32.4313 24.9998 32.4313C29.5711 32.4313 33.152 27.1794 33.152 20.4747C33.1522 20.1078 33.1407 19.7455 33.1198 19.3878V19.3878Z" fill="#D80027"/>
<path d="M10.3259 12.8657H13.5867V15.0396H16.8476V12.8657H20.1084V15.0396H23.3692V12.8657H26.6301V15.0396H29.8909V12.8657H33.1518V15.0396H36.4126V12.8657H39.6734V15.0396H47.5188C43.4754 6.67725 34.9112 0.90918 24.9998 0.90918C15.0884 0.90918 6.52422 6.67725 2.48047 15.0396H10.3259V12.8657Z" fill="#6DA544"/>
<path d="M39.6737 36.7783V38.9522H36.4129V36.7783H33.1521V38.9522H29.8912V36.7783H26.6304V38.9522H23.3695V36.7783H20.1087V38.9522H16.8479V36.7783H13.5867V38.9522H10.3259V36.7783H2.48047C6.52422 45.1407 15.0883 50.9088 24.9998 50.9088C34.9113 50.9088 43.4754 45.1407 47.5191 36.7783H39.6737Z" fill="#D80027"/>
</g>
<defs>
<clipPath id="clip0_175_247">
<rect width="50" height="50" fill="white" transform="translate(0 0.90918)"/>
</clipPath>
</defs>
</svg>
