<svg width="50" height="51" viewBox="0 0 50 51" fill="none" xmlns="http://www.w3.org/2000/svg">
<g clip-path="url(#clip0_175_247)">
<path d="M0 25.9092C0 12.1021 11.193 0.90918 25 0.90918C38.807 0.90918 50 12.1021 50 25.9092L25 28.0831L0 25.9092Z" fill="#FFDA44"/>
<path d="M3.3457 38.4088C7.66846 45.8811 15.747 50.9088 25.0004 50.9088C34.2538 50.9088 42.3323 45.8811 46.6551 38.4088L25.0004 36.7783L3.3457 38.4088Z" fill="#D80027"/>
<path d="M46.6547 38.4092C48.7818 34.732 50 30.463 50 25.9092H0C0 30.463 1.21816 34.732 3.34531 38.4092H46.6547Z" fill="#0052B4"/>
<path d="M25.0003 34.6051C29.8027 34.6051 33.6959 30.7119 33.6959 25.9095C33.6959 21.107 29.8027 17.2139 25.0003 17.2139C20.1978 17.2139 16.3047 21.107 16.3047 25.9095C16.3047 30.7119 20.1978 34.6051 25.0003 34.6051Z" fill="#FFDA44"/>
<path d="M25.0002 31.3442C22.0034 31.3442 19.5654 28.9062 19.5654 25.9095V22.6486C19.5654 19.6519 22.0035 17.2139 25.0002 17.2139C27.9969 17.2139 30.435 19.652 30.435 22.6486V25.9095C30.435 28.9063 27.997 31.3442 25.0002 31.3442Z" fill="#338AF3"/>
<path d="M33.6961 12.8653H27.1743C27.1743 11.6647 26.201 10.6914 25.0004 10.6914C23.7998 10.6914 22.8265 11.6647 22.8265 12.8653H16.3047C16.3047 14.066 17.3505 15.0393 18.551 15.0393H18.4786C18.4786 16.2399 19.4519 17.2132 20.6525 17.2132C20.6525 18.4139 21.6258 19.3871 22.8265 19.3871H27.1743C28.375 19.3871 29.3482 18.4139 29.3482 17.2132C30.5489 17.2132 31.5222 16.2399 31.5222 15.0393H31.4498C32.6504 15.0393 33.6961 14.0659 33.6961 12.8653V12.8653Z" fill="black"/>
</g>
<defs>
<clipPath id="clip0_175_247">
<rect width="50" height="50" fill="white" transform="translate(0 0.90918)"/>
</clipPath>
</defs>
</svg>
