<svg width="50" height="51" viewBox="0 0 50 51" fill="none" xmlns="http://www.w3.org/2000/svg">
<g clip-path="url(#clip0_175_348)">
<path d="M0 25.6371C0 28.6951 0.550098 31.6244 1.55498 34.3327L25 36.5066L48.445 34.3327C49.4499 31.6244 50 28.6951 50 25.6371C50 22.5791 49.4499 19.6498 48.445 16.9415L25 14.7676L1.55498 16.9415C0.550098 19.6498 0 22.5791 0 25.6371H0Z" fill="#FFDA44"/>
<path d="M48.4447 16.9411C44.9124 7.42119 35.7488 0.636719 24.9997 0.636719C14.2506 0.636719 5.08701 7.42119 1.55469 16.9411H48.4447Z" fill="#D80027"/>
<path d="M1.55469 34.332C5.08701 43.852 14.2506 50.6364 24.9997 50.6364C35.7488 50.6364 44.9124 43.852 48.4447 34.332H1.55469Z" fill="#D80027"/>
</g>
<defs>
<clipPath id="clip0_175_348">
<rect width="50" height="50" fill="white" transform="translate(0 0.636719)"/>
</clipPath>
</defs>
</svg>
