<svg width="50" height="51" viewBox="0 0 50 51" fill="none" xmlns="http://www.w3.org/2000/svg">
<g clip-path="url(#clip0_175_348)">
<path d="M25 50.6367C38.8071 50.6367 50 39.4438 50 25.6367C50 11.8296 38.8071 0.636719 25 0.636719C11.1929 0.636719 0 11.8296 0 25.6367C0 39.4438 11.1929 50.6367 25 50.6367Z" fill="#F0F0F0"/>
<path d="M25 19.1146H49.1388C48.5119 16.789 47.5592 14.5975 46.3307 12.5928H25V19.1146Z" fill="#338AF3"/>
<path d="M9.4374 45.2015H40.5617C42.8433 43.3843 44.7999 41.1771 46.3302 38.6797H3.66895C5.19932 41.177 7.15596 43.3843 9.4374 45.2015V45.2015Z" fill="#338AF3"/>
<path d="M25 0.636719V6.07148H40.5622C36.2917 2.67031 30.8837 0.636719 25 0.636719V0.636719Z" fill="#338AF3"/>
<path d="M25 19.1146H49.1388C48.5119 16.789 47.5592 14.5975 46.3307 12.5928H25V19.1146Z" fill="#338AF3"/>
<path d="M0 25.6367C0 27.8933 0.300781 30.079 0.86123 32.1585H49.1389C49.6992 30.079 50 27.8933 50 25.6367H0Z" fill="#338AF3"/>
<path d="M21.7393 15.2682L18.6859 16.7044L20.3118 19.6614L16.9964 19.0272L16.5763 22.3764L14.2671 19.9131L11.9577 22.3764L11.5377 19.0272L8.22227 19.6612L9.84805 16.7043L6.79492 15.2682L9.84814 13.8321L8.22227 10.8751L11.5376 11.5093L11.9578 8.16016L14.2671 10.6234L16.5764 8.16016L16.9964 11.5093L20.3119 10.8751L18.686 13.8322L21.7393 15.2682Z" fill="#FFDA44"/>
</g>
<defs>
<clipPath id="clip0_175_348">
<rect width="50" height="50" fill="white" transform="translate(0 0.636719)"/>
</clipPath>
</defs>
</svg>
