<svg width="50" height="51" viewBox="0 0 50 51" fill="none" xmlns="http://www.w3.org/2000/svg">
<g clip-path="url(#clip0_175_247)">
<path d="M25 50.9092C38.8071 50.9092 50 39.7163 50 25.9092C50 12.1021 38.8071 0.90918 25 0.90918C11.1929 0.90918 0 12.1021 0 25.9092C0 39.7163 11.1929 50.9092 25 50.9092Z" fill="#F0F0F0"/>
<path d="M49.7884 22.6483H28.261H28.2609V1.1208C27.1935 0.981836 26.1052 0.90918 25 0.90918C23.8948 0.90918 22.8065 0.981836 21.7392 1.1208V22.6481V22.6482H0.211621C0.0726563 23.7157 0 24.8038 0 25.9092C0 27.0146 0.0726563 28.1026 0.211621 29.17H21.739H21.7391V50.6976C22.8065 50.8365 23.8948 50.9092 25 50.9092C26.1052 50.9092 27.1935 50.8366 28.2608 50.6976V29.1702V29.1701H49.7884C49.9273 28.1026 50 27.0146 50 25.9092C50 24.8038 49.9273 23.7157 49.7884 22.6483V22.6483Z" fill="#D80027"/>
</g>
<defs>
<clipPath id="clip0_175_247">
<rect width="50" height="50" fill="white" transform="translate(0 0.90918)"/>
</clipPath>
</defs>
</svg>
