<svg width="50" height="51" viewBox="0 0 50 51" fill="none" xmlns="http://www.w3.org/2000/svg">
<g clip-path="url(#clip0_175_249)">
<path d="M25 50.9092C38.8071 50.9092 50 39.7163 50 25.9092C50 12.1021 38.8071 0.90918 25 0.90918C11.1929 0.90918 0 12.1021 0 25.9092C0 39.7163 11.1929 50.9092 25 50.9092Z" fill="#6DA544"/>
<path d="M14.1299 30.8008C14.1299 32.6017 15.5898 34.0616 17.3907 34.0616H27.1733C27.1733 35.5624 28.3899 36.779 29.8907 36.779H33.1516C34.6523 36.779 35.8689 35.5624 35.8689 34.0616V30.8008H14.1299Z" fill="#F0F0F0"/>
<path d="M36.1407 15.04V22.6487C36.1407 23.8475 35.1655 24.8227 33.9668 24.8227V28.0835C36.9636 28.0835 39.4016 25.6454 39.4016 22.6487V15.04H36.1407Z" fill="#F0F0F0"/>
<path d="M12.7716 22.6487C12.7716 23.8475 11.7964 24.8227 10.5977 24.8227V28.0835C13.5944 28.0835 16.0324 25.6454 16.0324 22.6487V15.04H12.7716V22.6487Z" fill="#F0F0F0"/>
<path d="M31.25 15.04H34.5108V22.6487H31.25V15.04Z" fill="#F0F0F0"/>
<path d="M26.3587 19.3879C26.3587 19.6876 26.1148 19.9313 25.8152 19.9313C25.5156 19.9313 25.2718 19.6875 25.2718 19.3879V15.04H22.0109V19.3879C22.0109 19.6876 21.7671 19.9313 21.4675 19.9313C21.1679 19.9313 20.924 19.6875 20.924 19.3879V15.04H17.6631V19.3879C17.6631 21.4856 19.3697 23.1923 21.4675 23.1923C22.2754 23.1923 23.0246 22.9384 23.6414 22.5071C24.2581 22.9383 25.0074 23.1923 25.8153 23.1923C25.978 23.1923 26.138 23.1809 26.2953 23.1608C26.0643 24.1129 25.2068 24.8227 24.1849 24.8227V28.0835C27.1816 28.0835 29.6196 25.6454 29.6196 22.6487V19.3879V15.04H26.3588V19.3879H26.3587Z" fill="#F0F0F0"/>
<path d="M17.6631 24.8223H22.5544V28.0831H17.6631V24.8223Z" fill="#F0F0F0"/>
</g>
<defs>
<clipPath id="clip0_175_249">
<rect width="50" height="50" fill="white" transform="translate(0 0.90918)"/>
</clipPath>
</defs>
</svg>
