<svg width="50" height="51" viewBox="0 0 50 51" fill="none" xmlns="http://www.w3.org/2000/svg">
<g clip-path="url(#clip0_175_348)">
<path d="M25 50.6367C38.8071 50.6367 50 39.4438 50 25.6367C50 11.8296 38.8071 0.636719 25 0.636719C11.1929 0.636719 0 11.8296 0 25.6367C0 39.4438 11.1929 50.6367 25 50.6367Z" fill="#F0F0F0"/>
<path d="M33.6959 25.637C33.6959 27.8109 29.8027 33.2457 25.0003 33.2457C20.1979 33.2457 16.3047 27.8109 16.3047 25.637C16.3047 20.8345 20.1979 16.9414 25.0003 16.9414C29.8027 16.9414 33.6959 20.8345 33.6959 25.637Z" fill="#D80027"/>
<path d="M33.6959 25.6367C33.6959 30.4393 29.8027 34.3323 25.0003 34.3323C20.1979 34.3323 16.3047 30.4393 16.3047 25.6367" fill="#0052B4"/>
<path d="M34.2158 33.3232L36.5212 31.0178L38.0582 32.5548L35.7528 34.8602L34.2158 33.3232Z" fill="black"/>
<path d="M30.373 37.166L32.6785 34.8606L34.2154 36.3976L31.91 38.703L30.373 37.166Z" fill="black"/>
<path d="M38.8271 37.9336L41.1326 35.6282L42.6695 37.1651L40.3641 39.4706L38.8271 37.9336Z" fill="black"/>
<path d="M34.9844 41.7764L37.2898 39.471L38.8268 41.0079L36.5213 43.3133L34.9844 41.7764Z" fill="black"/>
<path d="M36.5215 35.6289L38.8269 33.3235L40.3639 34.8605L38.0584 37.1659L36.5215 35.6289Z" fill="black"/>
<path d="M32.6797 39.4707L34.9851 37.1653L36.5221 38.7023L34.2167 41.0077L32.6797 39.4707Z" fill="black"/>
<path d="M38.8379 17.9551L32.6901 11.8073L34.2271 10.2703L40.3749 16.4181L38.8379 17.9551Z" fill="black"/>
<path d="M32.6885 16.418L30.3831 14.1126L31.92 12.5757L34.2254 14.8811L32.6885 16.418Z" fill="black"/>
<path d="M36.5312 20.2617L34.2258 17.9563L35.7627 16.4194L38.0681 18.7248L36.5312 20.2617Z" fill="black"/>
<path d="M37.2988 11.8066L34.9934 9.50123L36.5304 7.96426L38.8358 10.2697L37.2988 11.8066Z" fill="black"/>
<path d="M41.1436 15.6504L38.8381 13.345L40.3751 11.808L42.6805 14.1134L41.1436 15.6504Z" fill="black"/>
<path d="M8.8623 35.624L15.0101 41.7718L13.4731 43.3088L7.32534 37.161L8.8623 35.624Z" fill="black"/>
<path d="M15.0098 37.1602L17.3152 39.4656L15.7783 41.0025L13.4729 38.6971L15.0098 37.1602Z" fill="black"/>
<path d="M11.168 33.3184L13.4734 35.6238L11.9364 37.1607L9.631 34.8553L11.168 33.3184Z" fill="black"/>
<path d="M13.4736 31.0127L19.6214 37.1605L18.0845 38.6975L11.9367 32.5497L13.4736 31.0127Z" fill="black"/>
<path d="M15.0098 9.49609L8.86197 15.6439L7.32501 14.1069L13.4728 7.95913L15.0098 9.49609Z" fill="black"/>
<path d="M17.3154 11.8018L11.1676 17.9496L9.63067 16.4126L15.7785 10.2648L17.3154 11.8018Z" fill="black"/>
<path d="M19.623 14.1084L13.4753 20.2562L11.9384 18.7193L18.0861 12.5715L19.623 14.1084Z" fill="black"/>
</g>
<defs>
<clipPath id="clip0_175_348">
<rect width="50" height="50" fill="white" transform="translate(0 0.636719)"/>
</clipPath>
</defs>
</svg>
