<svg width="50" height="51" viewBox="0 0 50 51" fill="none" xmlns="http://www.w3.org/2000/svg">
<g clip-path="url(#clip0_175_247)">
<path d="M25 50.9092C38.8071 50.9092 50 39.7163 50 25.9092C50 12.1021 38.8071 0.90918 25 0.90918C11.1929 0.90918 0 12.1021 0 25.9092C0 39.7163 11.1929 50.9092 25 50.9092Z" fill="#F0F0F0"/>
<path d="M50 25.9092C50 39.7162 38.807 50.9092 25 50.9092C11.193 50.9092 0 39.7162 0 25.9092" fill="#496E2D"/>
<path d="M43.2628 18.3063C42.3688 15.7709 39.953 13.9531 37.1117 13.9531H31.5215C27.9196 13.9531 24.9997 16.873 24.9997 20.4749C24.9997 21.6517 25.313 22.7826 25.8582 23.7357C23.7823 23.7188 21.8611 23.7501 20.6519 23.7357C20.6519 21.2205 20.6519 18.0164 20.6519 17.346L20.9087 17.0892C22.0616 15.9362 21.6771 14.0147 21.6771 14.0147C21.6771 14.0147 19.7559 13.6305 18.6029 14.7834L17.2593 16.1271H15.7605C12.4588 16.1271 9.78232 18.8036 9.78232 22.1053H14.1302V26.9966C14.1302 27.712 14.2744 28.3936 14.5351 29.0143L13.0432 30.2574H10.8692V28.0835H8.69531V32.4313H18.4779V36.7792H16.304V38.9531H20.6519V34.6053L22.6445 32.214H27.3548L29.3475 34.6053V36.7792H27.1735V38.9531H35.8691V26.9965C35.8691 25.1956 37.3291 23.7356 39.13 23.7356C39.1763 23.7356 39.2222 23.7373 39.2681 23.7392C39.178 23.3907 39.13 23.0254 39.13 22.6487C39.1302 20.3197 40.9615 18.4186 43.2628 18.3063V18.3063ZM31.5215 36.7791V32.2139H31.7026L33.6953 34.6052V36.7791H31.5215Z" fill="#D80027"/>
</g>
<defs>
<clipPath id="clip0_175_247">
<rect width="50" height="50" fill="white" transform="translate(0 0.90918)"/>
</clipPath>
</defs>
</svg>
