<svg width="50" height="51" viewBox="0 0 50 51" fill="none" xmlns="http://www.w3.org/2000/svg">
<g clip-path="url(#clip0_175_247)">
<path d="M25 50.9092C38.8071 50.9092 50 39.7163 50 25.9092C50 12.1021 38.8071 0.90918 25 0.90918C11.1929 0.90918 0 12.1021 0 25.9092C0 39.7163 11.1929 50.9092 25 50.9092Z" fill="#F0F0F0"/>
<path d="M23.9131 25.9095H50C50 23.653 49.6992 21.4671 49.1388 19.3877H23.9131V25.9095Z" fill="#D80027"/>
<path d="M23.9131 12.8655H46.3307C44.8003 10.3683 42.8436 8.16094 40.5621 6.34375H23.9131V12.8655Z" fill="#D80027"/>
<path d="M24.9996 50.9094C30.8833 50.9094 36.2912 48.8758 40.5617 45.4746H9.4375C13.708 48.8758 19.1159 50.9094 24.9996 50.9094Z" fill="#D80027"/>
<path d="M3.66943 38.9524H46.3308C47.5594 36.9477 48.5122 34.7562 49.1389 32.4307H0.861328C1.48799 34.7562 2.44082 36.9477 3.66943 38.9524V38.9524Z" fill="#D80027"/>
<path d="M11.5805 4.81328H13.8587L11.7396 6.35283L12.549 8.84395L10.43 7.30439L8.31094 8.84395L9.01016 6.69189C7.14434 8.24609 5.50898 10.067 4.16133 12.0959H4.89131L3.54238 13.0759C3.33223 13.4265 3.13066 13.7826 2.9375 14.144L3.58164 16.1266L2.37988 15.2534C2.08115 15.8863 1.80791 16.5335 1.5623 17.1941L2.27197 19.3785H4.89131L2.77217 20.9181L3.58164 23.4092L1.4626 21.8696L0.193262 22.7919C0.0662109 23.8132 0 24.8534 0 25.9092H25C25 12.1021 25 10.4744 25 0.90918C20.0613 0.90918 15.4575 2.3418 11.5805 4.81328V4.81328ZM12.549 23.4092L10.43 21.8696L8.31094 23.4092L9.12041 20.9181L7.00127 19.3785H9.62061L10.43 16.8874L11.2394 19.3785H13.8587L11.7396 20.9181L12.549 23.4092ZM11.7396 13.6354L12.549 16.1266L10.43 14.587L8.31094 16.1266L9.12041 13.6354L7.00127 12.0959H9.62061L10.43 9.60479L11.2394 12.0959H13.8587L11.7396 13.6354ZM21.5164 23.4092L19.3974 21.8696L17.2783 23.4092L18.0878 20.9181L15.9687 19.3785H18.588L19.3974 16.8874L20.2067 19.3785H22.8261L20.7069 20.9181L21.5164 23.4092ZM20.7069 13.6354L21.5164 16.1266L19.3974 14.587L17.2783 16.1266L18.0878 13.6354L15.9687 12.0959H18.588L19.3974 9.60479L20.2067 12.0959H22.8261L20.7069 13.6354ZM20.7069 6.35283L21.5164 8.84395L19.3974 7.30439L17.2783 8.84395L18.0878 6.35283L15.9687 4.81328H18.588L19.3974 2.32217L20.2067 4.81328H22.8261L20.7069 6.35283Z" fill="#0052B4"/>
</g>
<defs>
<clipPath id="clip0_175_247">
<rect width="50" height="50" fill="white" transform="translate(0 0.90918)"/>
</clipPath>
</defs>
</svg>
