<svg width="50" height="51" viewBox="0 0 50 51" fill="none" xmlns="http://www.w3.org/2000/svg">
<g clip-path="url(#clip0_175_348)">
<path d="M25 50.6367C38.8071 50.6367 50 39.4438 50 25.6367C50 11.8296 38.8071 0.636719 25 0.636719C11.1929 0.636719 0 11.8296 0 25.6367C0 39.4438 11.1929 50.6367 25 50.6367Z" fill="#F0F0F0"/>
<path d="M49.9996 25.6365C49.9996 15.725 44.2315 7.16094 35.8691 3.11719V48.1558C44.2315 44.1121 49.9996 35.548 49.9996 25.6365V25.6365Z" fill="#D80027"/>
<path d="M0 25.6365C0 35.548 5.76807 44.1121 14.1305 48.1559V3.11719C5.76807 7.16094 0 15.725 0 25.6365Z" fill="#D80027"/>
<path d="M29.3481 28.8969L33.6959 26.723L31.5221 25.636V23.4621L27.1742 25.636L29.3481 21.2882H27.1742L25.0003 18.0273L22.8264 21.2882H20.6524L22.8264 25.636L18.4785 23.4621V25.636L16.3047 26.723L20.6524 28.8969L19.5655 31.0708H23.9134V34.3316H26.0872V31.0708H30.4351L29.3481 28.8969Z" fill="#D80027"/>
</g>
<defs>
<clipPath id="clip0_175_348">
<rect width="50" height="50" fill="white" transform="translate(0 0.636719)"/>
</clipPath>
</defs>
</svg>
