<svg width="50" height="51" viewBox="0 0 50 51" fill="none" xmlns="http://www.w3.org/2000/svg">
<g clip-path="url(#clip0_175_249)">
<path d="M25 50.9092C38.8071 50.9092 50 39.7163 50 25.9092C50 12.1021 38.8071 0.90918 25 0.90918C11.1929 0.90918 0 12.1021 0 25.9092C0 39.7163 11.1929 50.9092 25 50.9092Z" fill="#F0F0F0"/>
<path d="M19.5655 22.6483H49.7886C48.1906 10.382 37.702 0.90918 25.0002 0.90918C23.1335 0.90918 21.3154 1.11553 19.5654 1.50342V22.6483H19.5655Z" fill="#D80027"/>
<path d="M13.0437 22.6485V3.94922C6.1792 7.69473 1.26494 14.5649 0.211914 22.6486H13.0437V22.6485Z" fill="#D80027"/>
<path d="M13.0437 29.1699H0.211914C1.26494 37.2536 6.1792 44.1238 13.0437 47.8692L13.0437 29.1699Z" fill="#D80027"/>
<path d="M19.5654 29.17V50.3148C21.3154 50.7027 23.1335 50.9091 25.0002 50.9091C37.702 50.9091 48.1906 41.4362 49.7886 29.1699H19.5654V29.17Z" fill="#D80027"/>
</g>
<defs>
<clipPath id="clip0_175_249">
<rect width="50" height="50" fill="white" transform="translate(0 0.90918)"/>
</clipPath>
</defs>
</svg>
