<svg width="50" height="51" viewBox="0 0 50 51" fill="none" xmlns="http://www.w3.org/2000/svg">
<g clip-path="url(#clip0_175_348)">
<path d="M25 50.6367C38.8071 50.6367 50 39.4438 50 25.6367C50 11.8296 38.8071 0.636719 25 0.636719C11.1929 0.636719 0 11.8296 0 25.6367C0 39.4438 11.1929 50.6367 25 50.6367Z" fill="#F0F0F0"/>
<path d="M48.445 16.9414H1.55498C0.550098 19.6497 0 22.579 0 25.637C0 28.695 0.550098 31.6243 1.55498 34.3326H48.4451C49.45 31.6243 50 28.695 50 25.637C50 22.579 49.45 19.6497 48.445 16.9414Z" fill="#D80027"/>
<path d="M25.0001 0.636719C17.4229 0.636719 10.6335 4.0082 6.04883 9.33232H43.9513C39.3667 4.0082 32.5773 0.636719 25.0001 0.636719V0.636719Z" fill="#0052B4"/>
<path d="M43.9514 41.9414H6.04883C10.6335 47.2655 17.4229 50.637 25.0001 50.637C32.5773 50.637 39.3667 47.2655 43.9514 41.9414Z" fill="#0052B4"/>
</g>
<defs>
<clipPath id="clip0_175_348">
<rect width="50" height="50" fill="white" transform="translate(0 0.636719)"/>
</clipPath>
</defs>
</svg>
