<svg width="50" height="51" viewBox="0 0 50 51" fill="none" xmlns="http://www.w3.org/2000/svg">
<g clip-path="url(#clip0_175_247)">
<path d="M25 50.9092C38.8071 50.9092 50 39.7163 50 25.9092C50 12.1021 38.8071 0.90918 25 0.90918C11.1929 0.90918 0 12.1021 0 25.9092C0 39.7163 11.1929 50.9092 25 50.9092Z" fill="#F0F0F0"/>
<path d="M24.9997 0.90918C14.2506 0.90918 5.08701 7.69355 1.55469 17.2136H48.4448C44.9124 7.69355 35.7488 0.90918 24.9997 0.90918V0.90918Z" fill="#A2001D"/>
<path d="M24.9997 50.9089C35.7488 50.9089 44.9124 44.1245 48.4447 34.6045H1.55469C5.08701 44.1245 14.2506 50.9089 24.9997 50.9089Z" fill="#0052B4"/>
</g>
<defs>
<clipPath id="clip0_175_247">
<rect width="50" height="50" fill="white" transform="translate(0 0.90918)"/>
</clipPath>
</defs>
</svg>
