<svg width="50" height="51" viewBox="0 0 50 51" fill="none" xmlns="http://www.w3.org/2000/svg">
<g clip-path="url(#clip0_175_249)">
<path d="M25 50.9092C38.8071 50.9092 50 39.7163 50 25.9092C50 12.1021 38.8071 0.90918 25 0.90918C11.1929 0.90918 0 12.1021 0 25.9092C0 39.7163 11.1929 50.9092 25 50.9092Z" fill="#D80027"/>
<path d="M24.9995 37.8662C31.6029 37.8662 36.9561 32.5131 36.9561 25.9097C36.9561 19.3063 31.6029 13.9531 24.9995 13.9531C18.3961 13.9531 13.043 19.3063 13.043 25.9097C13.043 32.5131 18.3961 37.8662 24.9995 37.8662Z" fill="#F0F0F0"/>
<path d="M26.4736 21.3379L28.5248 24.1646L31.8468 23.0874L29.7924 25.9116L31.8434 28.7382L28.5225 27.6569L26.4681 30.4812L26.4702 26.9889L23.1494 25.9076L26.4715 24.8305L26.4736 21.3379Z" fill="#D80027"/>
<path d="M27.7177 32.9748C23.8157 32.9748 20.6524 29.8115 20.6524 25.9096C20.6524 22.0076 23.8157 18.8443 27.7177 18.8443C28.9343 18.8443 30.0791 19.152 31.0785 19.6936C29.5106 18.1603 27.3666 17.2139 25.0003 17.2139C20.1979 17.2139 16.3047 21.107 16.3047 25.9095C16.3047 30.7119 20.1979 34.6051 25.0003 34.6051C27.3666 34.6051 29.5107 33.6587 31.0785 32.1254C30.0791 32.6672 28.9343 32.9748 27.7177 32.9748Z" fill="#D80027"/>
</g>
<defs>
<clipPath id="clip0_175_249">
<rect width="50" height="50" fill="white" transform="translate(0 0.90918)"/>
</clipPath>
</defs>
</svg>
