<svg width="50" height="51" viewBox="0 0 50 51" fill="none" xmlns="http://www.w3.org/2000/svg">
<g clip-path="url(#clip0_175_348)">
<path d="M0 25.6371C0 28.6951 0.550098 31.6244 1.55498 34.3327L25 35.4197L48.445 34.3328C49.45 31.6244 50 28.6951 50 25.6371C50 22.5791 49.45 19.6498 48.445 16.9415L25 15.8545L1.55498 16.9414C0.550098 19.6498 0 22.5791 0 25.6371H0Z" fill="#FFDA44"/>
<path d="M24.9997 0.636719C14.2506 0.636719 5.08701 7.42109 1.55469 16.9411H48.4448C44.9124 7.42109 35.7488 0.636719 24.9997 0.636719V0.636719Z" fill="#D80027"/>
<path d="M48.4447 34.332H1.55469C5.08701 43.852 14.2506 50.6364 24.9997 50.6364C35.7488 50.6364 44.9124 43.852 48.4447 34.332Z" fill="#496E2D"/>
<path d="M24.9994 16.9414L27.1576 23.584H34.1428L28.4921 27.6897L30.6503 34.3326L24.9994 30.2271L19.3485 34.3326L21.5071 27.6897L15.8564 23.584H22.8412L24.9994 16.9414Z" fill="black"/>
</g>
<defs>
<clipPath id="clip0_175_348">
<rect width="50" height="50" fill="white" transform="translate(0 0.636719)"/>
</clipPath>
</defs>
</svg>
