<svg width="50" height="51" viewBox="0 0 50 51" fill="none" xmlns="http://www.w3.org/2000/svg">
<g clip-path="url(#clip0_175_247)">
<path d="M25 50.9092C38.8071 50.9092 50 39.7163 50 25.9092C50 12.1021 38.8071 0.90918 25 0.90918C11.1929 0.90918 0 12.1021 0 25.9092C0 39.7163 11.1929 50.9092 25 50.9092Z" fill="#F0F0F0"/>
<path d="M49.9996 25.9092C49.9996 12.1021 38.8066 0.90918 24.9996 0.90918C20.109 0.90918 15.5471 2.31494 11.6937 4.74229L17.1735 7.07051L9.78223 10.2109L17.1735 13.3513L9.78223 16.4915L17.1735 19.6316L9.78223 22.7714L17.1735 25.9109L9.78223 29.0512L17.1735 32.1912L9.78223 35.331L17.1735 38.471L9.78223 41.6112L17.1735 44.751L11.6962 47.0779C15.549 49.5041 20.11 50.9092 24.9996 50.9092C38.8066 50.9092 49.9996 39.7162 49.9996 25.9092Z" fill="#751A46"/>
</g>
<defs>
<clipPath id="clip0_175_247">
<rect width="50" height="50" fill="white" transform="translate(0 0.90918)"/>
</clipPath>
</defs>
</svg>
