<svg width="50" height="51" viewBox="0 0 50 51" fill="none" xmlns="http://www.w3.org/2000/svg">
<g clip-path="url(#clip0_175_249)">
<path d="M25 50.9092C38.8071 50.9092 50 39.7163 50 25.9092C50 12.1021 38.8071 0.90918 25 0.90918C11.1929 0.90918 0 12.1021 0 25.9092C0 39.7163 11.1929 50.9092 25 50.9092Z" fill="#F0F0F0"/>
<path d="M49.9996 25.909C49.9996 15.9975 44.2315 7.4334 35.8691 3.38965V48.4282C44.2315 44.3846 49.9996 35.8205 49.9996 25.909V25.909Z" fill="#D80027"/>
<path d="M0 25.909C0 35.8205 5.76807 44.3846 14.1305 48.4283V3.38965C5.76807 7.4334 0 15.9975 0 25.909Z" fill="#6DA544"/>
<path d="M18.4785 25.9093C18.4785 29.5111 21.3984 32.4311 25.0003 32.4311C28.6021 32.4311 31.5221 29.5111 31.5221 25.9093V23.7354H18.4785V25.9093Z" fill="#6DA544"/>
<path d="M33.6961 21.5616H27.1743C27.1743 20.361 26.201 19.3877 25.0004 19.3877C23.7998 19.3877 22.8265 20.361 22.8265 21.5616H16.3047C16.3047 22.7623 17.3505 23.7355 18.551 23.7355H18.4786C18.4786 24.9362 19.4519 25.9095 20.6525 25.9095C20.6525 27.1102 21.6258 28.0834 22.8265 28.0834H27.1743C28.375 28.0834 29.3482 27.1102 29.3482 25.9095C30.5489 25.9095 31.5222 24.9362 31.5222 23.7355H31.4497C32.6504 23.7355 33.6961 22.7623 33.6961 21.5616Z" fill="#FF9811"/>
</g>
<defs>
<clipPath id="clip0_175_249">
<rect width="50" height="50" fill="white" transform="translate(0 0.90918)"/>
</clipPath>
</defs>
</svg>
