<svg width="50" height="51" viewBox="0 0 50 51" fill="none" xmlns="http://www.w3.org/2000/svg">
<g clip-path="url(#clip0_175_348)">
<path d="M33.696 2.1917C30.9877 1.18682 28.0584 0.636719 25.0004 0.636719C21.9424 0.636719 19.0131 1.18682 16.3048 2.1917L14.1309 25.6367L16.3048 49.0817C19.0131 50.0867 21.9424 50.6367 25.0004 50.6367C28.0584 50.6367 30.9877 50.0867 33.696 49.0817L35.8699 25.6367L33.696 2.1917Z" fill="#FFDA44"/>
<path d="M49.9997 25.6363C49.9997 14.8873 43.2153 5.72363 33.6953 2.19141V49.0815C43.2153 45.549 49.9997 36.3855 49.9997 25.6363V25.6363Z" fill="#D80027"/>
<path d="M0 25.6363C0 36.3855 6.78437 45.549 16.3044 49.0814V2.19141C6.78437 5.72363 0 14.8873 0 25.6363V25.6363Z" fill="black"/>
</g>
<defs>
<clipPath id="clip0_175_348">
<rect width="50" height="50" fill="white" transform="translate(0 0.636719)"/>
</clipPath>
</defs>
</svg>
