<svg width="50" height="51" viewBox="0 0 50 51" fill="none" xmlns="http://www.w3.org/2000/svg">
<g clip-path="url(#clip0_175_348)">
<path d="M0 25.6364C0 36.3854 6.78438 45.549 16.3042 49.0813L18.4782 25.6363L16.3042 2.19141C6.78438 5.72383 0 14.8873 0 25.6364Z" fill="#6DA544"/>
<path d="M50.0005 25.6367C50.0005 11.8297 38.8075 0.636719 25.0005 0.636719C21.9425 0.636719 19.0131 1.18682 16.3047 2.1917V49.0817C19.0131 50.0867 21.9425 50.6367 25.0005 50.6367C38.8075 50.6367 50.0005 39.4438 50.0005 25.6367Z" fill="#D80027"/>
<path d="M16.304 34.3326C21.1065 34.3326 24.9996 30.4395 24.9996 25.637C24.9996 20.8346 21.1065 16.9414 16.304 16.9414C11.5016 16.9414 7.6084 20.8346 7.6084 25.637C7.6084 30.4395 11.5016 34.3326 16.304 34.3326Z" fill="#FFDA44"/>
<path d="M11.4131 21.2891V26.7238C11.4131 29.4252 13.6029 31.6151 16.3044 31.6151C19.0059 31.6151 21.1957 29.4253 21.1957 26.7238V21.2891H11.4131Z" fill="#D80027"/>
<path d="M16.3043 28.3541C15.4053 28.3541 14.6738 27.6227 14.6738 26.7236V24.5498H17.9347V26.7237C17.9347 27.6227 17.2032 28.3541 16.3043 28.3541Z" fill="#F0F0F0"/>
</g>
<defs>
<clipPath id="clip0_175_348">
<rect width="50" height="50" fill="white" transform="translate(0 0.636719)"/>
</clipPath>
</defs>
</svg>
