<svg version="1.0" xmlns="http://www.w3.org/2000/svg" viewBox="0 0 270 270"><path d="M130.8 28.7c.6.2 1.8.2 2.5 0 .6-.3.1-.5-1.3-.5-1.4 0-1.9.2-1.2.5z" fill="none"/><g fill="#FFF" stroke-width="0"><path d="M131.3 29.7c1.5.2 3.9.2 5.5 0 1.5-.2.2-.4-2.8-.4s-4.3.2-2.7.4zm-23.9 10.5-1.9 2.3 2.3-1.9c2.1-1.8 2.7-2.6 1.9-2.6-.2 0-1.2 1-2.3 2.2zm51.1 1.8c.3.5 1.3 1 2.1 1s1.2-.5.9-1c-.3-.6-1.3-1-2.1-1s-1.2.4-.9 1zm-17.1 2.8c-1.7 1.1-1.4 7.2.4 7.2.7 0 1.2-.6.9-1.3-.2-.6.3-1.7 1.2-2.4 1.4-1 1.4-1.3.1-2.7-.8-.8-2-1.2-2.6-.8zM140 54c0 .5.5 1 1 1 .6 0 1-.5 1-1 0-.6-.4-1-1-1-.5 0-1 .4-1 1zm-7.7 25.4C127 81.9 124 85.8 124 90c0 4 3.2 9 11.3 17.8 4.3 4.8 9.7 11 12 13.9 2.4 3.1 4.6 4.9 5.4 4.6 1.1-.4 1.1-.9-.3-2.4-2.3-2.6-1.5-10.6 1.6-14.9l2.4-3.3-2.2-1.5-2.2-1.4 2-2.5c1.3-1.7 2-4.1 2-7 0-13.1-11.4-19.8-23.7-13.9zM145.9 90c3.1 1.6 2.5 4.6-1.8 9.2l-3.8 4.2-3.4-3.8c-5.9-6.7-5.9-6.6 0-13.1l3.3-3.7 1.9 3c1 1.7 2.7 3.6 3.8 4.2zm-40.5-6.6c-.7 1.9 2.1 5.6 4.3 5.6 2.2 0 1.2-4-1.4-5.7-2-1.4-2.3-1.4-2.9.1zm11.8 10.3c-.4 1-.6 4.9-.6 8.7.2 6.3.5 7.3 4.7 13.5 2.5 3.6 6.9 9.1 9.6 12.3 2.8 3.1 5.1 5.9 5.1 6.2 0 1-4.6.7-7.7-.5-2.7-1-2.6-.8 1.1 3 2.2 2.2 6.3 5.3 9.3 6.8 2.9 1.5 5.1 3.2 5 3.8-.2.5-3 1.2-6.3 1.5l-5.9.6 5.5 2.6c3 1.5 7.2 3 9.3 3.3 5.5 1 4.6 3.2-2 5.1-5.3 1.6-5.6 1.8-3.3 2.6 1.4.5 5.4 1.3 9 1.7l6.5.7-3.5 2.2c-5.6 3.5-10.6 4.5-21.5 3.9-11.7-.6-21.6-3.3-22.9-6.3-.5-1.1-2.2-2.8-3.7-3.6-2.4-1.4-2.8-1.4-3.3-.1-1 2.5 2.2 7.1 6.7 9.7 13 7.5 33 8.3 45 1.8 9.1-4.9 11.9-11.1 8.1-18.3-.8-1.7-9.7-11.7-19.6-22.2-21.2-22.6-23.2-25.6-23.3-34.4 0-3.5-.1-6.3-.3-6.3-.1 0-.6.8-1 1.7z"/><path d="M153.1 116.6c0 1.1.3 1.4.6.6.3-.7.2-1.6-.1-1.9-.3-.4-.6.2-.5 1.3z"/></g><g fill="#CCC" stroke-width="0"><path d="M122.3 31.4c-7.5 2.4-14.5 8-20.1 16.3-3.2 4.6-2.7 5.2.6.7 8.5-11.6 19.4-15.2 28.9-9.5 6.1 3.8 8.7 14.7 5.8 24.6-1.4 5-2.9 7.2-9.5 14-4.3 4.4-8.5 9.4-9.4 11.2-1.8 3.5-2 4.7-.8 4 .4-.3.7 2.3.7 5.7.1 8.7 2.1 11.7 23.3 34.3 9.9 10.5 18.8 20.5 19.6 22.2 2.4 4.5 2 9.4-.8 12.8-5.7 6.7-19.5 11.1-31.1 9.9-17.8-1.9-31-10-27.4-16.9 1.1-2 1.1-2.1-.4-.8-2.4 1.9-3.7 7.5-2.6 11.4 5.1 18.4 50.5 20.9 62.6 3.4 2.6-3.8 2.8-4.7 2.8-14.1 0-9.8-.1-10.4-4.1-18.6-4.7-9.7-12.5-20.4-24.7-33.7-11.6-12.6-13.5-17-10.1-23.4 2.2-4.3 11.1-8.3 16.9-7.7 8.2 1 13.5 7.3 13.5 16.1 0 3-.7 5.3-2.1 7.1-1.1 1.4-1.7 2.6-1.4 2.6 1.6 0 10.6-7.4 13.5-11 5.5-7 7.4-12.6 7.4-22 0-19.2-9.7-33.7-26-38.6-5.8-1.7-19.5-1.7-25.1 0zm8.1.2c2.6 1 1.8 2.4-1.4 2.4-3 0-4.1-1.4-1.7-2.3.6-.3 1.3-.6 1.4-.6.1-.1.8.2 1.7.5zm15.6 1.6c0 1 .2 1 .8.1.6-.9 2.2-.3 6.1 2.3 2.9 2 5 3.8 4.7 4.1-.3.3-2.4.9-4.8 1.3-2.4.5-5.1 1.2-6 1.5-1.4.6-1.8.2-1.9-1.6 0-2.4 0-2.4-.9-.2-.9 2.1-1 2-5.2-2-5.9-5.8-5.7-6.7 1.4-6.7 4 0 5.8.4 5.8 1.2zm15.5 8.8c.3.5-.1 1-.9 1s-1.8-.5-2.1-1c-.3-.6.1-1 .9-1s1.8.4 2.1 1zm-17.6 6.3c-.9.7-1.4 1.8-1.2 2.4.3.7-.2 1.3-.9 1.3-1 0-1.5-1.1-1.5-3.3 0-3.8 1.6-5.2 3.7-3.1 1.3 1.4 1.3 1.7-.1 2.7zm17.5-2.4c7.4 4.9 11.6 16.6 9.7 27.2-1.1 6.6-5.9 16.5-9.7 20l-2.4 2.2v-2.4c-.1-3.8-3.4-10.1-7.5-13.9-5.1-4.8-7.7-10.3-8.3-17.6-.9-11.2 3.1-17.4 11.2-17.4 2.4 0 5.3.8 7 1.9zM142 54c0 .5-.4 1-1 1-.5 0-1-.5-1-1 0-.6.5-1 1-1 .6 0 1 .4 1 1zm.1 15.6c.9 1.1 1 2 .3 3.2-1.4 2.2-2.7 2.4-4.8.9-1.6-1.2-1.7-1.6-.5-3.5 1.6-2.6 3.2-2.8 5-.6z"/><path d="M144 36c.8.5 2.2 1 3 1 1.3 0 1.3-.1 0-1-.8-.5-2.2-1-3-1-1.3 0-1.3.1 0 1zm17.1 47.4c-.9 1.1-.8 1.5.5 2 2 .8 3.9-.7 3-2.3-1-1.5-2.1-1.4-3.5.3zM98 56.7c-4.3 14.9 0 31.5 10.9 41.7 5.7 5.2 7.1 5.7 7.1 2.1 0-1.6-.4-2.3-1.4-1.9-1.8.7-10.7-9.2-13.7-15.3-2.7-5.6-3.7-18-2-25.3 1.2-5.5.6-6.5-.9-1.3zm38.9 29.8c-5.9 6.5-5.9 6.4 0 13.1l3.4 3.8 3.8-4.2c4.3-4.6 4.9-7.6 1.8-9.2-1.1-.6-2.8-2.5-3.8-4.2l-1.9-3-3.3 3.7zm17.5 21.7c-1.8 2.9-2.9 6-3.2 9.4-.4 4.7-.2 5.2 2.8 7.7 4.1 3.5 6.5 3.4 10.1-.3 2.4-2.3 3-3.7 2.7-6.2-.2-2.8-.7-3.4-3.1-3.6-1.6-.2-3.5.3-4.4 1-1.4 1.1-1.3 1.4 1.3 1.8 3.2.6 4.3 3.2 2.4 5.5-1.8 2.2-4.4 1.8-7.1-1.1-3-3.2-3-8.6 0-14.3 2.7-5.3 2.1-5.2-1.5.1z"/><path d="M160 107.1c-.9 1.5-.8 2.4.1 3.5 1.5 1.9 2.9 1.8 4.5-.4 1-1.4 1-2-.3-3.5-2.1-2.2-3-2.2-4.3.4z"/></g><path d="M134.3 33.5c0 .8.4 1.2.9.9.5-.3.6-1 .3-1.5-.9-1.3-1.2-1.1-1.2.6zm-2.3 5.9c0 .2.8 1 1.8 1.7 1.5 1.3 1.6 1.2.3-.4s-2.1-2.1-2.1-1.3zm-16.8 18.8c13.4 12 16.1 14.1 11.9 9.5-1.9-2-3.1-3.7-2.6-3.7s.3-.6-.3-1.2c-.7-.7-1.9-1.3-2.7-1.3-.8 0-4.3-2.8-7.9-6.3-3.6-3.4-7-6.2-7.6-6.2-.5 0 3.6 4.1 9.2 9.2zm39.8 8.3c-1.9.7-2.8 1.3-2 1.3.8 0 3.1-.6 5-1.3 1.9-.7 2.8-1.3 2-1.3-.8 0-3.1.6-5 1.3zm-6.2 2.2c.7.3 1.6.2 1.9-.1.4-.3-.2-.6-1.3-.5-1.1 0-1.4.3-.6.6zm-23.9 11c-1.3 1.6-1.2 1.7.4.4.9-.7 1.7-1.5 1.7-1.7 0-.8-.8-.3-2.1 1.3z" fill="#C99"/><path d="M135.6 33.3c.3 1 .9 1.5 1.2 1.2.3-.3 0-1.1-.7-1.8-1-.9-1.1-.8-.5.6zM125 50.5c1.9 1.9 3.6 3.5 3.9 3.5.3 0-1-1.6-2.9-3.5s-3.6-3.5-3.9-3.5c-.3 0 1 1.6 2.9 3.5zm9.1 9.1c0 1.1.3 1.4.6.6.3-.7.2-1.6-.1-1.9-.3-.4-.6.2-.5 1.3zm11.1 1.4c0 1.4.2 1.9.5 1.2.2-.6.2-1.8 0-2.5-.3-.6-.5-.1-.5 1.3zm-43.6 10.2c.3.5 1 .6 1.5.3 1.3-.9 1.1-1.2-.6-1.2-.8 0-1.2.4-.9.9zm62.6 129.3c0 1.6.2 2.2.5 1.2.2-.9.2-2.3 0-3-.3-.6-.5.1-.5 1.8z" fill="#C66"/><path d="M136.5 33c.4.6 1.1.8 1.6.5 1.4-.9 1.1-1.5-.7-1.5-.8 0-1.2.5-.9 1zm-5.6 40.7c-1.3 1.6-1.2 1.7.4.4.9-.7 1.7-1.5 1.7-1.7 0-.8-.8-.3-2.1 1.3zm-.4 55.3c1 1.1 2 2 2.3 2 .3 0-.3-.9-1.3-2s-2-2-2.3-2c-.3 0 .3.9 1.3 2zm4.3 19.7c.7.3 1.6.2 1.9-.1.4-.3-.2-.6-1.3-.5-1.1 0-1.4.3-.6.6zm4 0c.7.3 1.6.2 1.9-.1.4-.3-.2-.6-1.3-.5-1.1 0-1.4.3-.6.6zm-5.7 59.9c0 1.1.3 1.4.6.6.3-.7.2-1.6-.1-1.9-.3-.4-.6.2-.5 1.3zm26.7 6.1c.7.3 1.6.2 1.9-.1.4-.3-.2-.6-1.3-.5-1.1 0-1.4.3-.6.6zm-30.6 3.8c0 1.6.2 2.2.5 1.2.2-.9.2-2.3 0-3-.3-.6-.5.1-.5 1.8zm4 .5c0 1.4.2 1.9.5 1.2.2-.6.2-1.8 0-2.5-.3-.6-.5-.1-.5 1.3z" fill="#936"/><path d="M140.3 32.7c.9.2 2.3.2 3 0 .6-.3-.1-.5-1.8-.5-1.6 0-2.2.2-1.2.5zm13.5 16c.7.3 1.6.2 1.9-.1.4-.3-.2-.6-1.3-.5-1.1 0-1.4.3-.6.6zm4 0c.7.3 1.6.2 1.9-.1.4-.3-.2-.6-1.3-.5-1.1 0-1.4.3-.6.6zm-9.4 2.5-1.9 2.3 2.3-1.9c2.1-1.8 2.7-2.6 1.9-2.6-.2 0-1.2 1-2.3 2.2zM146.5 203c-1.6.7-1.7.9-.3.9.9.1 2-.4 2.3-.9.7-1.1.7-1.1-2 0zm-4.7.7c.7.3 1.6.2 1.9-.1.4-.3-.2-.6-1.3-.5-1.1 0-1.4.3-.6.6zM94.2 215c0 1.4.2 1.9.5 1.2.2-.6.2-1.8 0-2.5-.3-.6-.5-.1-.5 1.3zm19.9 3.6c0 1.1.3 1.4.6.6.3-.7.2-1.6-.1-1.9-.3-.4-.6.2-.5 1.3z" fill="#933"/><path d="M144.1 200.6c0 1.1.3 1.4.6.6.3-.7.2-1.6-.1-1.9-.3-.4-.6.2-.5 1.3z" fill="#FFF" fill-opacity=".01"/><g fill="#903" stroke-width="0"><path d="M141 34c2 .5 3.9.5 4.5-.1.5-.5-.8-.9-3.5-.8l-4.5.1 3.5.8zm6 .3c0 .7 2.1 2 4.8 3 4 1.4 4.4 1.5 2.7.1-1.1-.8-3.2-2.2-4.7-3-2.2-1.2-2.8-1.2-2.8-.1zm-7.5 3.6c2.7 2.9 3.1 3.1 4.2 1.5 1.8-2.4 1.6-3.4-.4-3.4-1 0-2.9-.3-4.3-.7l-2.5-.6 3 3.2zm-25.1.9c-8 4.5-9.6 7-3.3 5.2 4.7-1.4 10.4-1.2 14.2.4l3.3 1.3-.4-3.3c-.3-2.4 0-3.4.9-3.4 1.1 0 1.1-.2-.1-1-2.4-1.6-11.2-1.1-14.6.8zm31.3.4c-.4 1.2-.5 2.3-.4 2.5.2.1 2.1-.2 4.2-.8 4-1.1 3.7-1.8-1.1-3.3-1.7-.5-2.3-.2-2.7 1.6zm5.7 5.6c-.6.4-1.3 1.7-1.6 2.9-.5 1.9-.3 2.1 1.9 1.2 3.6-1.3 7-1.1 10.5.7 4.6 2.4 3.1-.6-1.8-3.3-4-2.3-7.1-2.8-9-1.5zm-43.1 19.8c-.3.9-.6 5-.7 9.2-.1 6.6.2 7.9 2.2 9.9 2.9 2.9 2.8 5.1-.5 6.4l-2.6 1 3.8 3.9 3.9 4 1.1-3.7c1.9-6.2 4.5-10.5 9.4-15.6l4.6-4.9-4 2c-4 2-6.5 2.5-11.8 2.3-2.7-.1-2.7-.2-1.4-2.9 2.6-5.1 2.8-9.1.7-11.2-2.4-2.4-3.9-2.5-4.7-.4zm29.8 5.3c-1.4 2.6-1.4 2.9.7 4 1.4.7 2.1.5 2.9-.9 1-1.4.8-2.1-.7-3.5-1.7-1.6-1.9-1.5-2.9.4zm20.3.5c-.3.9-.3 3.2 0 5.1.8 4.1-.2 4.4-5 1.4-4.3-2.6-3.8-.6 1.2 4.6 2.2 2.3 3.6 5.1 4 7.6.4 2.1 1 3.9 1.4 3.9 1 0 7-8 7-9.3 0-.5-.9.1-1.9 1.4-1.9 2.3-2 2.3-3.8.6-1.7-1.8-1.7-1.9.6-3.8 1.6-1.3 2.3-2.9 2.3-5.4 0-2.4.4-3.3 1.2-2.8.6.4.4-.4-.5-1.7-1.9-3-5.6-3.8-6.5-1.6zm-39.5 46.3c-.8 12.4-.8 13.1.5 12.9.8-.1 2.2-.8 3.2-1.6 1.3-1.1 1.1-.5-.6 1.9-1.3 1.9-1.8 3.1-1 2.6.9-.6 1.1-.4.6.4-.5.7-1.3 1-2 .8-.8-.3-1 4.4-.9 17.7l.2 18.1 6.3 1.3c10.2 2.2 24.6.2 20-2.7-.8-.5-1.3-1.2-1.1-1.7.1-.5-1.2-1.5-3-2.3-3.9-1.8-3.9-2.8 0-3.6 4.4-1 3.6-4.4-1.4-6.1-2.1-.7-5.2-2.4-7-3.6l-3.2-2.3 7.5-.5 7.5-.5-5.2-2.7c-5.7-3.1-11.8-8-13.4-10.9-.9-1.7-.7-1.8 1.6-.9 1.5.6 3.8 1 5.3 1h2.6l-3.6-3.8c-1.9-2-5.4-6.3-7.8-9.5-2.3-3.1-4.4-5.7-4.6-5.7-.2 0-.4.8-.5 1.7z"/><path d="M147 166.5c0 .8.4 1.5 1 1.5.5 0 .7-.7.4-1.5-.4-.8-.8-1.5-1-1.5-.2 0-.4.7-.4 1.5zm-1.8 34c0 1.6.2 2.2.5 1.2.2-.9.2-2.3 0-3-.3-.6-.5.1-.5 1.8zm16.9-.3c-.1 3.4-1.8 3.7-2.4.5-.4-1.9-.4-1.8-.6.5 0 1.8.4 2.8 1.3 2.8 2.1 0 3.4-2.3 2.5-4.5-.7-1.7-.8-1.7-.8.7zm-26.9.8c0 1.4.2 1.9.5 1.2.2-.6.2-1.8 0-2.5-.3-.6-.5-.1-.5 1.3zm18.3-1c-.8 1.2 1.2 4 2.8 4 .6 0 .3-.6-.8-1.3-1-.8-1.5-1.9-1.1-2.5.4-.7.5-1.2.2-1.2s-.8.5-1.1 1zm-46.4 1.6c0 1.1.3 1.4.6.6.3-.7.2-1.6-.1-1.9-.3-.4-.6.2-.5 1.3zm22 0c0 1.1.3 1.4.6.6.3-.7.2-1.6-.1-1.9-.3-.4-.6.2-.5 1.3zm4 0c0 1.1.3 1.4.6.6.3-.7.2-1.6-.1-1.9-.3-.4-.6.2-.5 1.3zm5 0c0 1.1.3 1.4.6.6.3-.7.2-1.6-.1-1.9-.3-.4-.6.2-.5 1.3zm3 0c0 1.1.3 1.4.6.6.3-.7.2-1.6-.1-1.9-.3-.4-.6.2-.5 1.3zm7.9.6c-1.2 2.2-1.2 2.2.6.6 1-1 1.5-2 1.2-2.4-.4-.3-1.2.5-1.8 1.8zm16.2-.2c0 1.4.2 1.9.5 1.2.2-.6.2-1.8 0-2.5-.3-.6-.5-.1-.5 1.3zm-48.7 0c-.3.5-.1 1 .4 1 .6 0 1.1-.5 1.1-1 0-.6-.2-1-.4-1-.3 0-.8.4-1.1 1zm5.2.1c.7.7 1.5 1 1.8.7.3-.3-.2-.9-1.2-1.2-1.4-.6-1.5-.5-.6.5zm3.3-.1c0 .5.5 1 1 1 .6 0 1-.5 1-1 0-.6-.4-1-1-1-.5 0-1 .4-1 1zm-31.6 7.4c-4.3 3.6-3.9 8.8 1 13.3 2.2 2 4.4 3.2 5.2 2.9.8-.3 1.7.1 2.1.9.4 1.1.9 1.3 1.8.5s1.4-.7 1.8.2c.4.9.6.9.6-.2.1-.8-.8-2.1-1.9-2.8-2-1.2-2-1.3.9-3.8 4.4-3.6 4.7-5.9 1.6-9.9-2.2-2.9-3.2-3.5-6.5-3.5-2.6 0-4.8.8-6.6 2.4zm9.4 1.8c2.5 2.5.8 10.8-2.2 10.8-1.8 0-6.6-4.9-6.6-6.8 0-4 6.1-6.7 8.8-4zm28.5-2.5c-.7.3-1.3 1.1-1.3 1.9 0 .8-.7 1.4-1.5 1.4s-1.5.7-1.5 1.5.7 1.5 1.5 1.5c1.1 0 1.5 1.2 1.5 4.4 0 2.5.5 4.8 1.1 5.2 1.8 1.1 6.9 1.2 7.5.2.4-.6 1-.5 1.5.3s.9.9.9.4c0-1 10.5-1.1 14.6-.1 1.3.4 2.7 0 3.4-.9 1-1.2 1-1.5-.3-1.5-3.1 0-3.7-6.4-.8-8 4.2-2.2 4.9-.8 2.6 5.5-.5 1.6-.5 1.7.4.5.8-1.2 1.1-.8 1.1 1.7 0 2.6.4 3.3 2 3.3 1.8 0 2-.7 2-7v-7h-4.5c-5.6 0-9.5 3.2-9.5 8v3h-7.9c-10.1 0-11.1-.4-11.1-4.5 0-2.9.4-3.4 2.7-3.7 3.8-.4 4.2-2.8.5-2.8-2.2 0-3.2-.5-3.4-1.8-.2-1.1-.9-1.7-1.5-1.5zM113 214c-1.3 1.3-2 3.3-2 5.7 0 4.7 1 6.3 3.5 5.8 1.1-.2 2.5-.4 3-.5.6 0 .2-.6-.7-1.3-4.1-3.2-2.6-9.7 2.3-9.7 2.3 0 2.3.1.4 4.7-1.9 4.5-1.9 5.2 0 2.7 1.4-1.8 1.4-1.7 1.5 1.3 0 2.6.4 3.3 2 3.3 1.8 0 2-.7 2-7v-7h-5c-3.7 0-5.5.5-7 2zm57 4.5c0 7.7 1.8 8.8 4.3 2.4 1-2.5 2.4-4.3 3.7-4.6 1.3-.4 1.9-1.1 1.6-2-.3-.8-.6-1.7-.6-1.9 0-1.4-2.2.1-3.4 2.3l-1.4 2.8-.7-2.8c-.4-1.5-1.3-2.7-2.1-2.7-1.1 0-1.4 1.6-1.4 6.5zm-62.3 8.6c.7.7 1.5 1 1.8.7.3-.3-.2-.9-1.2-1.2-1.4-.6-1.5-.5-.6.5zM121 230c-1.2.8-.9 1 1.3 1 3.2 0 3.6 2.3 1 5.4-1.8 2-1.8 2 .7.5 2.5-1.6 4.1-6.9 2.1-6.9-.5 0-1.5-.2-2.3-.5-.7-.3-2 0-2.8.5zm11.2.1c-1.9.7-2.3 1.5-2 4.6.2 2.1.9 3.8 1.8 4.1 1.2.4 1.3.2.4-.9-1.8-2.4-.2-6.4 2.6-6.4 2.3 0 2.5.4 2.4 4.4-.1 3.9.1 4.2 1.3 2.6 2.3-3.2 1.7-7.4-1.3-8.5-1.4-.6-2.6-1-2.7-.9-.1 0-1.2.4-2.5 1zm10.8-.1c-1.2.8-.9 1 1.2 1 3.2 0 4.1 1.9 1.9 4.4-1.5 1.8-1.5 1.8.5.8 3.1-1.6 3.9-4.4 1.8-5.9-2.1-1.5-3.4-1.6-5.4-.3zm10.5 0c-1.8.8-1.7.9.7.9 3.5.1 4 2 1.4 5-2.1 2.5-.5 2 2.7-.7 2.1-1.9 2.1-2.6.1-4.6-1.7-1.8-2.1-1.8-4.9-.6z"/><path d="M134 235c0 .5.5 1 1 1 .6 0 1-.5 1-1 0-.6-.4-1-1-1-.5 0-1 .4-1 1zm-14.4 3.8c-.3.5.1.9.9.9s1.2-.4.9-.9c-.3-.4-.7-.8-.9-.8-.2 0-.6.4-.9.8zm21.8.3c-.3.5.6.9 2 .9 3.1 0 3.4-.6.6-1.3-1.1-.3-2.3-.1-2.6.4z"/></g><path d="M121.8 36.7c.7.3 1.6.2 1.9-.1.4-.3-.2-.6-1.3-.5-1.1 0-1.4.3-.6.6zm10.2 16c0 .4.5 1.5 1 2.3.8 1.3 1 1.3 1-.2 0-.9-.4-2-1-2.3-.5-.3-1-.3-1 .2zm39.1 14.9c0 1.1.3 1.4.6.6.3-.7.2-1.6-.1-1.9-.3-.4-.6.2-.5 1.3zm-43.5 8.6c.3.5 1 .6 1.5.3 1.3-.9 1.1-1.2-.6-1.2-.8 0-1.2.4-.9.9zm-5.8 164.5c1.2.2 3 .2 4 0 .9-.3-.1-.5-2.3-.4-2.2 0-3 .2-1.7.4zm25 0c.7.3 1.6.2 1.9-.1.4-.3-.2-.6-1.3-.5-1.1 0-1.4.3-.6.6zm6.5 0c1.5.2 3.7.2 5 0 1.2-.2 0-.4-2.8-.4-2.7 0-3.8.2-2.2.4z" fill="#966"/><path d="M128 41.7c0 1.6.5 3.5 1 4.3.9 1.3 1.1 1.3 2 0 .5-.8 1-2.1 1-2.8 0-.7.4-1.1 1-.7.5.3.7 1.2.3 2-.6 1.7 1.2 2.1 2.2.5.8-1.3-3.9-6-6-6-1 0-1.5.9-1.5 2.7zm7 7.6c-1.7 1.3-1.5 5 .3 4.4.6-.2 1.5-1.1 2.1-2 1.4-2.2-.3-4-2.4-2.4zm30 .9c0 .4.9 2.2 2 4 1.1 1.8 2 2.8 2 2.3 0-.6-.9-2.4-2-4-1.1-1.7-2-2.7-2-2.3zm-33.9 22.2-2.4 3.1 2.8-2.7c1.6-1.5 2.7-2.9 2.4-3.1-.2-.3-1.5 1-2.8 2.7zm33.2 5.3c.2 3.8.6 4.9 2.1 5.1 1 .2 1.6 0 1.2-.6-.3-.6 0-1.3.6-1.5 1-.4 1-.6 0-.6-1-.1-1-.6-.2-2.1.6-1.2.7-2 .1-2-.5 0-1.2.6-1.4 1.2-.3.7-.6.3-.6-.9-.1-1.2-.5-2.4-1-2.8-.6-.3-.9 1.5-.8 4.2zM144 158.1c0 1.5.4 1.9 1.6 1.5.9-.3 2.1-.6 2.7-.6 1.3-.1-2.2-3-3.5-3-.4 0-.8.9-.8 2.1zm.3 8.3c.5 2.9 2.6 3.7 6 2.2 4.8-2 5.2-3.2 1-3.4-2.8-.2-3.4 0-3 1.3.4.8.2 1.5-.3 1.5-.6 0-1-.6-1-1.3 0-.8-.6-1.4-1.4-1.4-.8 0-1.4.5-1.3 1.1zm28.7 57.5c0 .5-.8 1.2-1.7 1.4-1.4.4-1.2.5.5.6 1.3.1 2.2-.5 2.2-1.4 0-.8-.2-1.5-.5-1.5s-.5.4-.5.9zm-34.5 1.1c-.3.5-.1 1 .4 1 .6 0 1.1-.5 1.1-1 0-.6-.2-1-.4-1-.3 0-.8.4-1.1 1zm2.5 0c0 .6 1.7 1 3.7 1 4.3 0 4.1-.5-.4-1.3-1.9-.4-3.3-.2-3.3.3zm-37.4 1.9c-.4.6 1 1.9 3.3 3 3.6 1.9 3.9 1.9 3.4.3-.6-2.3-4.3-4.8-4.3-3 0 1-.2 1-.9-.1-.6-.9-1.1-1-1.5-.2zm19.7 12.8c.9.2 2.5.2 3.5 0 .9-.3.1-.5-1.8-.5-1.9 0-2.7.2-1.7.5zm30.5 0c.7.3 1.6.2 1.9-.1.4-.3-.2-.6-1.3-.5-1.1 0-1.4.3-.6.6z" fill="#603"/><path d="M98.1 72.6c0 1.1.3 1.4.6.6.3-.7.2-1.6-.1-1.9-.3-.4-.6.2-.5 1.3zm50.9.8c0 .2.8 1 1.8 1.7 1.5 1.3 1.6 1.2.3-.4s-2.1-2.1-2.1-1.3zm-42 19c0 .2.8 1 1.8 1.7 1.5 1.3 1.6 1.2.3-.4s-2.1-2.1-2.1-1.3zm1.1 70.2c0 1.1.3 1.4.6.6.3-.7.2-1.6-.1-1.9-.3-.4-.6.2-.5 1.3zM101 201c0 1.6.4 3 .8 3 .5 0 .7-1.4.4-3-.2-1.7-.6-3-.8-3-.2 0-.4 1.3-.4 3zm8-.6c0 1.4.4 2.7.8 3 .5.3.6-.8.4-2.5-.5-3.5-1.2-3.8-1.2-.5zm37.1.2c0 1.1.3 1.4.6.6.3-.7.2-1.6-.1-1.9-.3-.4-.6.2-.5 1.3zm21.5.1c-.6 1.4-.5 1.5.5.6.7-.7 1-1.5.7-1.8-.3-.3-.9.2-1.2 1.2zm-42.6-.3c0 .2.7.6 1.5 1 .8.3 1.5.1 1.5-.4 0-.6-.7-1-1.5-1s-1.5.2-1.5.4zm-12 2.6c0 .5.5 1 1.1 1 .5 0 .7-.5.4-1-.3-.6-.8-1-1.1-1-.2 0-.4.4-.4 1z" fill="#C36"/><path d="M131.6 44.4c-1.1 4.5 1.4 7.2 4.1 4.5 1.6-1.6.5-3.9-1.5-3.2-1.1.5-1.4.2-.9-1 .3-.9.2-1.9-.2-2.2-.5-.2-1.2.6-1.5 1.9zm4.6 8.9c-.6.6-1.1 3.9-1.3 7.2-.1 3.3-.6 6.6-1.2 7.2-.6.8-.6 1.3 0 1.3 1.6 0 3.5-5.2 4-11.3.6-5.8.3-6.6-1.5-4.4zm33.5 14.4c-.5 6.3-1.2 9.7-2.2 11.3-.3.6-.2 1 .3 1 .6 0 1.3-.8 1.7-1.8.9-2.2 2-16.2 1.3-16.2-.3 0-.8 2.6-1.1 5.7zm-19.9 158c1.2.2 3 .2 4 0 .9-.3-.1-.5-2.3-.4-2.2 0-3 .2-1.7.4z" fill="#600"/><path d="M112.1 44.6c-6.6 2.8-6.6 3 1 10.2 3.9 3.7 7.7 6.7 8.5 6.7.7 0 1.9.6 2.6 1.4 1.1 1.2 1 1.3-.2.6-.8-.4.3 1.2 2.5 3.6 2.2 2.4 4.1 4.6 4.2 4.8.2.2 1-1.2 1.8-3.2 1.6-4 2-10.7.6-10.7-.5 0-1.2-.7-1.5-1.6-.4-.9-.2-1.3.5-.8.7.4 1 .1.7-.7-.2-.7-1.4-1.4-2.6-1.4-1.1 0-4.5-2.4-7.5-5.3-3-2.8-5.9-5.2-6.3-5.2-.5.1-2.4.7-4.3 1.6zm42.4 12.3c-5.5 1.9-8.1 3.3-8.3 4.5-.5 2.6.8 9.1 1.6 8 .7-1 18.4-6.7 20.8-6.7.8 0 .9-.9.4-2.6-2.2-7.2-2.5-7.3-14.5-3.2zm5.3 11.8c.7.3 1.6.2 1.9-.1.4-.3-.2-.6-1.3-.5-1.1 0-1.4.3-.6.6z" fill="#C96"/><path d="M118 43.3c0 .2 2.8 2.7 6.1 5.6 4.4 3.7 6.5 4.9 7.4 4.1.6-.5 1.6-.6 2-.2.5.4-.1-.7-1.3-2.5-2.2-3.1-9.3-7.3-12.5-7.3-.9 0-1.7.2-1.7.3zm35.8 5.5c-3.3.4-7.8 5.4-7.8 8.7v2.3l6.8-2.5c3.7-1.4 8.2-3.1 10.1-3.8 3.5-1.2 3.5-1.2 1.1-2.5-3.3-1.8-7.1-2.6-10.2-2.2zM132.5 57c.3.5 1 1 1.6 1 .5 0 .9-.5.9-1 0-.6-.7-1-1.6-1-.8 0-1.2.4-.9 1z" fill="#963"/><path d="M104.8 46.7c-1.7 1.9-4.1 6.3-3.5 6.3.2 0 1.8-1.8 3.6-4 3.1-3.9 3-5.8-.1-2.3zm41.4 1.8c-4.4 5.6-3.6 17.4 1.8 25.5 3.7 5.5 3.9 4.5.4-1.5-1.5-2.6-2.8-6.6-3.1-9.7-.4-4.4 0-6.1 2.1-10.1 1.4-2.6 2.6-5.2 2.6-5.8 0-1.7-1.8-.9-3.8 1.6zm-40.4 18c-1 1.3-1.8 3.1-1.8 4 0 2.6-2.3 1.2-4.3-2.6l-1.8-3.4.7 6c1 9.3 6.8 22.4 9 20.2.4-.4 0-1.5-.9-2.5-2.1-2.3-2.2-5.8-.2-6.6 1.2-.4 1.5-2.3 1.4-9.1-.1-4.7-.2-8.5-.3-8.5-.1 0-.9 1.1-1.8 2.5zm12.4 50c0 1.6.2 2.2.5 1.2.2-.9.2-2.3 0-3-.3-.6-.5.1-.5 1.8zm-.1 7.1c0 1.1.3 1.4.6.6.3-.7.2-1.6-.1-1.9-.3-.4-.6.2-.5 1.3zm3.1 5.6c-.7.7-1.2.8-1.2.4 0-.5-.7-.3-1.5.4-2.2 1.8-1.8 3.2.8 2.5 1.8-.5 1.9-.4.7.5-1.3 1-1.3 1.1 0 .7.8-.2 1.4-1 1.2-1.7-.1-.7.3-1.8.9-2.6 1.4-1.7.8-1.9-.9-.2zm-5.1 11c-.7 3.4-2.6 9.4-4.2 13.5-3.9 10-3.8 12 .7 13.9 6.3 2.6 6.4 2.3 6.4-16 0-9.1-.4-16.7-.8-17-.5-.3-1.4 2.3-2.1 5.6zm-13.3 58.5c.7.3 1.6.2 1.9-.1.4-.3-.2-.6-1.3-.5-1.1 0-1.4.3-.6.6zm3.8.8c-.3.9-.6 2.2-.5 2.8 0 .7.5.1 1-1.2s.8-2.6.5-2.8c-.2-.2-.6.3-1 1.2zm3.4.2c0 1 .4 1.4.8.8.4-.6 1.1-1.3 1.6-1.8.5-.4.2-.7-.7-.7-1 0-1.7.8-1.7 1.7zm5-.8c0 .5.7 1.1 1.4 1.4 1 .4 1.3.1.9-.9-.6-1.5-2.3-1.9-2.3-.5zm8.3.6c-.3.9-.3 1.8-.1 2.1.3.3.8-.4 1.1-1.6.6-2.3-.1-2.7-1-.5zm6.4-.8c-.3.5.5.8 1.8.8s2.1-.3 1.8-.8c-.2-.4-1-.7-1.8-.7s-1.6.3-1.8.7zm6.7 0c1.5.4 1.6.7.5 1.5-1.2.8-1.2.9 0 .6 2.5-.7 2.4-2.8-.1-2.7-1.9.1-2 .2-.4.6zm10.6 0c.8.3 1.9 1.1 2.3 1.7.6.7.7.6.4-.4-.2-.8-1.2-1.6-2.3-1.7-1.3-.2-1.5-.1-.4.4zm8.8 0c.7.3 1.6.2 1.9-.1.4-.3-.2-.6-1.3-.5-1.1 0-1.4.3-.6.6zm9.2.1c0 .5.7.9 1.5.9s1.2-.4.9-.9c-.3-.4-.9-.8-1.5-.8-.5 0-.9.4-.9.8zm-62.9 2.8c0 1.1.3 1.4.6.6.3-.7.2-1.6-.1-1.9-.3-.4-.6.2-.5 1.3z" fill="#C03"/><path d="M166 72.9c0 1.7 1.8 2.1 2.4.6.3-.9 0-1.5-.9-1.5-.8 0-1.5.4-1.5.9zm-11.4 3c-.3.4.6 1.3 2 1.9 2.3 1.1 2.4 1 1.4-.8-1.1-2.1-2.5-2.6-3.4-1.1zM128 136.4c0 .2.8 1 1.8 1.7 1.5 1.3 1.6 1.2.3-.4s-2.1-2.1-2.1-1.3z" fill="#FCC"/><path d="M101.1 56.2c-1.4 4-1.4 8.9 0 12.5l1.1 2.8 1.9-3.8c2-3.9 5.2-5.9 7.9-4.9 1.8.7-5.9-7.6-8.2-8.9-1.3-.7-1.8-.2-2.7 2.3zm12.9 7.5c0 .6 1 1.8 2.3 2.7 1.7 1.2 1.8 1.4.3.9-1.6-.5-1.8-.3-1.4 1.4.3 1.1-.3 3.6-1.2 5.6-1 2-1.5 3.8-1.2 4.1 2 2 11.5-.6 14.2-3.9 1.1-1.4 1.1-1.7.2-1.1-1 .6-3.2-1-7.3-5-3.2-3.2-5.9-5.3-5.9-4.7zm51.3 3.6c-1.8 1-2 1.5-.9 2.9 1.6 2.2 4.6 2.4 4.6.4 0-.8.3-2.1.6-3 .7-1.9-1.2-2-4.3-.3zm-11 3c-1.7.7-3.5 1.5-3.9 1.9-1.3 1.4 1.8 3.7 4.7 3.5 2.6-.2 2.9-.6 2.9-3.5 0-1.7-.1-3.2-.2-3.1-.2 0-1.7.6-3.5 1.2z" fill="#FC9"/><path d="M104.1 51.4c-1 1.2-.5 2.2 2.9 5.2 2.2 2 3.9 4.3 3.6 5-.3.8 0 1.1 1 .7.7-.3 1.4 0 1.4.7 0 .6.4.9.9.6.4-.3 1.7.4 2.7 1.5 1.7 1.9 1.7 2-.2 1.3-1-.4-1.6-.4-1.2 0 .3.4 1.3.9 2.2 1 .9.1 3.1 1.7 5 3.5 2.3 2.2 3.9 3.1 4.8 2.5.9-.6.9-.2-.2 1.2-1.4 1.9-1.4 1.9.8 0 1.2-1.1 2.2-2.2 2.2-2.5 0-.7-23.6-22.1-24.4-22.1-.2 0-.9.6-1.5 1.4zM158 66.3c-5.2 1.7-9.6 3.1-9.8 3.2-.1.1 0 1 .4 1.9.4 1 1.1 1.3 1.8.8 1.6-1.2 10.2-4.3 11.2-4 1.6.4 8.4-2.6 8.1-3.6-.6-1.7-1.9-1.5-11.7 1.7z" fill="#CC9"/><path d="M125.3 222.5c0 2.2.2 3 .4 1.7.2-1.2.2-3 0-4-.3-.9-.5.1-.4 2.3z" fill="#BFBFBF" fill-opacity=".02"/><path d="M125.1 217.6c0 1.1.3 1.4.6.6.3-.7.2-1.6-.1-1.9-.3-.4-.6.2-.5 1.3z" fill="#FFBFBF" fill-opacity=".02"/><path d="M166.1 215.6c0 1.1.3 1.4.6.6.3-.7.2-1.6-.1-1.9-.3-.4-.6.2-.5 1.3z" fill="#891A3B" fill-opacity=".15"/><path d="M166.1 221.6c0 1.1.3 1.4.6.6.3-.7.2-1.6-.1-1.9-.3-.4-.6.2-.5 1.3z" fill="#7C1A34" fill-opacity=".15"/><path d="M169.1 222.6c0 1.1.3 1.4.6.6.3-.7.2-1.6-.1-1.9-.3-.4-.6.2-.5 1.3z" fill="#953F56" fill-opacity=".3"/><path d="M170.8 226.7c.7.3 1.6.2 1.9-.1.4-.3-.2-.6-1.3-.5-1.1 0-1.4.3-.6.6z" fill="#802437" fill-opacity=".05"/><path d="M136.8 226.7c1.7.2 4.7.2 6.5 0 1.7-.2.3-.4-3.3-.4-3.6 0-5 .2-3.2.4z" fill="#922437" fill-opacity=".05"/><path d="M147.8 226.7c1.2.2 3 .2 4 0 .9-.3-.1-.5-2.3-.4-2.2 0-3 .2-1.7.4z" fill="#823" fill-opacity=".06"/></svg>